<svg width="13" height="7" viewBox="0 0 13 7" fill="none" xmlns="http://www.w3.org/2000/svg">
<path d="M6.97745 6.99977C6.72462 7.00526 6.52021 6.91201 6.35345 6.74197C4.63745 4.99774 2.92146 3.2535 1.21085 1.50377C0.861193 1.14725 0.866572 0.593261 1.20547 0.253189C1.54974 -0.0923672 2.08767 -0.0868827 2.44808 0.286099C3.8467 1.70672 5.23994 3.13283 6.63855 4.55345C6.97745 4.89901 6.97745 4.89901 7.31096 4.55893C8.69344 3.14928 10.0759 1.74512 11.4584 0.335465C11.7005 0.0886387 11.9909 -0.00460726 12.3245 0.0941232C12.6526 0.187369 12.8516 0.412255 12.9269 0.746842C12.9969 1.06497 12.9054 1.33922 12.6795 1.5696C12.2061 2.05228 11.7274 2.53496 11.254 3.01764C10.0544 4.23532 8.8602 5.45299 7.66062 6.67615C7.46696 6.86813 7.25717 7.00526 6.97745 6.99977Z" fill="white"/>
</svg>
