<svg width="11" height="18" viewBox="0 0 11 18" fill="none" xmlns="http://www.w3.org/2000/svg">
<path d="M10.9997 9.04124C11.0079 8.662 10.868 8.35538 10.613 8.10525C7.9966 5.53126 5.38025 2.95727 2.75566 0.391344C2.22087 -0.133137 1.38989 -0.125069 0.879784 0.383274C0.361449 0.899686 0.369676 1.70658 0.929149 2.2472C3.06008 4.34512 5.19924 6.43498 7.33017 8.5329C7.84851 9.04124 7.84851 9.04124 7.3384 9.54152C5.22392 11.6152 3.11768 13.6889 1.0032 15.7627C0.632959 16.1258 0.49309 16.5615 0.641186 17.0618C0.781054 17.554 1.11838 17.8525 1.62026 17.9655C2.09746 18.0704 2.50884 17.9332 2.85439 17.5943C3.57842 16.8842 4.30244 16.1661 5.02646 15.456C6.85298 13.6567 8.67949 11.8654 10.5142 10.066C10.8022 9.77552 11.0079 9.46083 10.9997 9.04124Z" fill="white"/>
</svg>
